HIERARCHY
ROOT Hips
{
  OFFSET 5.84602e-005 68.8428 3.50346
  CHANNELS 6 Xposition Yposition Zposition Zrotation Xrotation Yrotation
  JOINT Spine
  {
    OFFSET 0 8.597 -4.6522
    CHANNELS 3 Zrotation Xrotation Yrotation
    JOINT Spine1
    {
      OFFSET 0 7.8454 0.4098
      CHANNELS 3 Zrotation Xrotation Yrotation
      JOINT Spine2
      {
        OFFSET 0 9.7078 -2.1609
        CHANNELS 3 Zrotation Xrotation Yrotation
        JOINT Neck
        {
          OFFSET 0 21.8761 -0.4549
          CHANNELS 3 Zrotation Xrotation Yrotation
          JOINT Head
          {
            OFFSET 0 12.3537 3.3602
            CHANNELS 3 Zrotation Xrotation Yrotation
            End Site
            {
              OFFSET 0.0001 18.9506 0.5657
            }
          }
        }
        JOINT LeftShoulder
        {
          OFFSET 2.2086 21.1115 7.2329
          CHANNELS 3 Zrotation Xrotation Yrotation
          JOINT LeftArm
          {
            OFFSET 13.1193 3.0282 -4.8998
            CHANNELS 3 Zrotation Xrotation Yrotation
            JOINT LeftForeArm
            {
              OFFSET 27.4081 -0.0973053 -0.2375
              CHANNELS 3 Zrotation Xrotation Yrotation
              JOINT LeftHand
              {
                OFFSET 22.8641 0.0662994 -0.1369
                CHANNELS 3 Zrotation Xrotation Yrotation
                JOINT LeftHandIndex1
                {
                  OFFSET 8.8614 0.775009 2.4612
                  CHANNELS 3 Zrotation Xrotation Yrotation
                  JOINT LeftHandIndex2
                  {
                    OFFSET 3.3146 -0.808304 0.5841
                    CHANNELS 3 Zrotation Xrotation Yrotation
                    JOINT LeftHandIndex3
                    {
                      OFFSET 2.2628 -0.552002 0.3989
                      CHANNELS 3 Zrotation Xrotation Yrotation
                      End Site
                      {
                        OFFSET 1.6102 -0.4807 0.2612
                      }
                    }
                  }
                }
                JOINT LeftHandMiddle1
                {
                  OFFSET 8.9937 0.895004 0.2143
                  CHANNELS 3 Zrotation Xrotation Yrotation
                  JOINT LeftHandMiddle2
                  {
                    OFFSET 4.0984 0.0113983 -0.0242
                    CHANNELS 3 Zrotation Xrotation Yrotation
                    JOINT LeftHandMiddle3
                    {
                      OFFSET 2.2716 0.00689697 -0.0138001
                      CHANNELS 3 Zrotation Xrotation Yrotation
                      End Site
                      {
                        OFFSET 2.0404 -0.1441 0.0027
                      }
                    }
                  }
                }
                JOINT LeftHandRing1
                {
                  OFFSET 8.5234 0.597198 -2.0164
                  CHANNELS 3 Zrotation Xrotation Yrotation
                  JOINT LeftHandRing2
                  {
                    OFFSET 3.7188 -0.188293 -0.2328
                    CHANNELS 3 Zrotation Xrotation Yrotation
                    JOINT LeftHandRing3
                    {
                      OFFSET 2.1191 -0.106598 -0.1332
                      CHANNELS 3 Zrotation Xrotation Yrotation
                      End Site
                      {
                        OFFSET 1.8737 -0.2304 -0.0886
                      }
                    }
                  }
                }
                JOINT LeftHandPinky1
                {
                  OFFSET 7.9094 -0.601089 -3.4825
                  CHANNELS 3 Zrotation Xrotation Yrotation
                  JOINT LeftHandPinky2
                  {
                    OFFSET 2.2874 -0.477005 -0.6314
                    CHANNELS 3 Zrotation Xrotation Yrotation
                    JOINT LeftHandPinky3
                    {
                      OFFSET 1.6774 -0.349396 -0.4633
                      CHANNELS 3 Zrotation Xrotation Yrotation
                      End Site
                      {
                        OFFSET 1.4888 -0.4091 -0.3416
                      }
                    }
                  }
                }
                JOINT LeftHandThumb1
                {
                  OFFSET 1.833 -1.3875 1.3896
                  CHANNELS 3 Zrotation Xrotation Yrotation
                  JOINT LeftHandThumb2
                  {
                    OFFSET 3.4129 -1.121 2.5732
                    CHANNELS 3 Zrotation Xrotation Yrotation
                    JOINT LeftHandThumb3
                    {
                      OFFSET 2.2474 -0.804199 1.6192
                      CHANNELS 3 Zrotation Xrotation Yrotation
                      End Site
                      {
                        OFFSET 1.6527 -0.5689 1.1317
                      }
                    }
                  }
                }
              }
            }
          }
        }
        JOINT RightShoulder
        {
          OFFSET -2.2086 21.1115 7.2329
          CHANNELS 3 Zrotation Xrotation Yrotation
          JOINT RightArm
          {
            OFFSET -13.1216 3.0287 -4.9007
            CHANNELS 3 Zrotation Xrotation Yrotation
            JOINT RightForeArm
            {
              OFFSET -27.4081 -0.0973053 -0.2375
              CHANNELS 3 Zrotation Xrotation Yrotation
              JOINT RightHand
              {
                OFFSET -22.8641 0.0664063 -0.1369
                CHANNELS 3 Zrotation Xrotation Yrotation
                JOINT RightHandIndex1
                {
                  OFFSET -8.8614 0.774994 2.4612
                  CHANNELS 3 Zrotation Xrotation Yrotation
                  JOINT RightHandIndex2
                  {
                    OFFSET -3.3146 -0.808304 0.5841
                    CHANNELS 3 Zrotation Xrotation Yrotation
                    JOINT RightHandIndex3
                    {
                      OFFSET -2.2628 -0.552002 0.3989
                      CHANNELS 3 Zrotation Xrotation Yrotation
                      End Site
                      {
                        OFFSET -1.6102 -0.4807 0.2612
                      }
                    }
                  }
                }
                JOINT RightHandMiddle1
                {
                  OFFSET -8.9937 0.894989 0.2143
                  CHANNELS 3 Zrotation Xrotation Yrotation
                  JOINT RightHandMiddle2
                  {
                    OFFSET -4.0984 0.0113983 -0.0242
                    CHANNELS 3 Zrotation Xrotation Yrotation
                    JOINT RightHandMiddle3
                    {
                      OFFSET -2.2716 0.00691223 -0.0138001
                      CHANNELS 3 Zrotation Xrotation Yrotation
                      End Site
                      {
                        OFFSET -2.0404 -0.1441 0.0027
                      }
                    }
                  }
                }
                JOINT RightHandRing1
                {
                  OFFSET -8.5234 0.597198 -2.0164
                  CHANNELS 3 Zrotation Xrotation Yrotation
                  JOINT RightHandRing2
                  {
                    OFFSET -3.7188 -0.188309 -0.2328
                    CHANNELS 3 Zrotation Xrotation Yrotation
                    JOINT RightHandRing3
                    {
                      OFFSET -2.1191 -0.106598 -0.1332
                      CHANNELS 3 Zrotation Xrotation Yrotation
                      End Site
                      {
                        OFFSET -1.8737 -0.2304 -0.0886
                      }
                    }
                  }
                }
                JOINT RightHandPinky1
                {
                  OFFSET -7.9094 -0.601105 -3.4825
                  CHANNELS 3 Zrotation Xrotation Yrotation
                  JOINT RightHandPinky2
                  {
                    OFFSET -2.2874 -0.477005 -0.6314
                    CHANNELS 3 Zrotation Xrotation Yrotation
                    JOINT RightHandPinky3
                    {
                      OFFSET -1.6774 -0.349396 -0.4633
                      CHANNELS 3 Zrotation Xrotation Yrotation
                      End Site
                      {
                        OFFSET -1.4888 -0.4091 -0.3416
                      }
                    }
                  }
                }
                JOINT RightHandThumb1
                {
                  OFFSET -1.833 -1.38751 1.3896
                  CHANNELS 3 Zrotation Xrotation Yrotation
                  JOINT RightHandThumb2
                  {
                    OFFSET -3.41299 -1.12099 2.5732
                    CHANNELS 3 Zrotation Xrotation Yrotation
                    JOINT RightHandThumb3
                    {
                      OFFSET -2.24741 -0.804108 1.6192
                      CHANNELS 3 Zrotation Xrotation Yrotation
                      End Site
                      {
                        OFFSET -1.6527 -0.5689 1.1317
                      }
                    }
                  }
                }
              }
            }
          }
        }
      }
    }
  }
  JOINT RightUpLeg
  {
    OFFSET -9.1966 3.8861 -0.7581
    CHANNELS 3 Zrotation Xrotation Yrotation
    JOINT RightLeg
    {
      OFFSET -0.7359 -41.0265 0
      CHANNELS 3 Zrotation Xrotation Yrotation
      JOINT RightFoot
      {
        OFFSET 0 -40.2855 0
        CHANNELS 3 Zrotation Xrotation Yrotation
        JOINT RightToeBase
        {
          OFFSET 0 -5.6122 11.7359
          CHANNELS 3 Zrotation Xrotation Yrotation
          End Site
          {
            OFFSET 0 0 7.8731
          }
        }
      }
    }
  }
  JOINT LeftUpLeg
  {
    OFFSET 9.1965 3.8864 -0.7581
    CHANNELS 3 Zrotation Xrotation Yrotation
    JOINT LeftLeg
    {
      OFFSET 0.7359 -41.0268 0
      CHANNELS 3 Zrotation Xrotation Yrotation
      JOINT LeftFoot
      {
        OFFSET 0 -40.2855 0
        CHANNELS 3 Zrotation Xrotation Yrotation
        JOINT LeftToeBase
        {
          OFFSET 0 -5.6122 11.7359
          CHANNELS 3 Zrotation Xrotation Yrotation
          End Site
          {
            OFFSET 0 0 7.8731
          }
        }
      }
    }
  }
}
MOTION
Frames:	4
Frame Time:	0.0333333
-0.253651 -6.95945 54.3189 -90.3963 -89.7304 89.3514 0.164449 -5.53249 0.0502358 0.336167 -11.0648 0.117339 0.336167 -11.0648 0.117339 7.68784e-006 -7.90086 -5.06785e-007 -8.21205e-008 21.0655 -1.90817e-007 6.34971 -38.0621 15.0758 -55.2161 1.47182 -39.4572 50.8164 -16.6087 -108.16 8.77388 -61.997 41.1311 9.29873e-007 -7.41977e-006 2.88266e-006 1.79667e-006 -3.73939e-006 -5.53943e-008 1.59028e-015 1.76918e-014 1.19271e-015 9.29873e-007 -7.41977e-006 2.88266e-006 -0.0146061 -9.33728e-005 -3.14223e-006 -3.18055e-015 9.93923e-016 -7.95139e-016 9.29873e-007 -7.41977e-006 2.88266e-006 -0.0187592 -0.00117669 6.43957e-005 -1.59028e-015 3.77691e-015 -1.19271e-015 9.29873e-007 -7.41977e-006 2.88266e-006 -0.0122462 -0.00323895 0.000675814 3.18055e-015 -9.93923e-016 1.59028e-015 9.29873e-007 -7.41977e-006 2.88266e-006 1.79667e-006 -3.73939e-006 -5.53943e-008 1.59028e-015 1.76918e-014 1.19271e-015 -14.4227 -3.99013 -43.0549 55.232 9.60663 46.2804 -2.07391 17.5683 128.957 -41.2675 -15.2519 -30.244 -2.75869e-031 4.96962e-015 3.18055e-015 3.18363e-007 -3.94072e-006 5.20046e-007 -1.59028e-015 6.55989e-015 -0 -2.75869e-031 4.96962e-015 3.18055e-015 0.0150201 -8.55818e-005 8.42624e-007 7.15625e-015 -1.43125e-014 -1.11319e-014 -2.75869e-031 4.96962e-015 3.18055e-015 0.0189677 -0.00118898 -5.51134e-005 -1.59028e-015 4.57205e-015 -3.18055e-015 -2.75869e-031 4.96962e-015 3.18055e-015 0.0122794 -0.00324347 -0.000676164 6.62086e-031 7.95139e-015 -4.77083e-015 -2.75869e-031 4.96962e-015 3.18055e-015 3.18363e-007 -3.94072e-006 5.20046e-007 -1.59028e-015 6.55989e-015 -0 -1.89779 -0.972554 -5.11116 -167.562 68.4484 163.597 -6.59506 18.0524 0.334588 -8.04861e-007 -2.97498e-008 -2.80264e-007 4.65256 -1.98763 2.83364 20.8845 80.8371 -19.8745 11.4564 42.0988 0.532861 -3.02098e-006 -2.92646e-006 3.84195e-007 
-0.253651 -6.95945 54.3189 -90.3963 -89.7304 89.3514 0.164994 -5.35538 0.0495713 0.336889 -10.7105 0.115473 0.336889 -10.7105 0.115473 1.02687e-005 -5.0711 -1.12766e-006 -1.26124e-007 19.8222 -8.02312e-008 7.02472 -38.8378 15.507 -55.216 1.47181 -39.4572 50.8164 -16.6088 -108.16 9.67418 -62.1932 41.7985 -1.87309e-006 -2.31397e-006 9.27929e-007 -1.87309e-006 -2.31397e-006 9.27929e-007 -1.87309e-006 -2.31397e-006 9.27929e-007 -1.87309e-006 -2.31397e-006 9.27929e-007 -0.0146123 -8.79912e-005 -1.04471e-006 -1.87291e-006 -2.31409e-006 9.27635e-007 -1.87309e-006 -2.31397e-006 9.27929e-007 -0.0187417 -0.00117667 5.53263e-005 -1.87285e-006 -2.3141e-006 9.27569e-007 -1.87309e-006 -2.31397e-006 9.27929e-007 -0.0123025 -0.00326288 0.000678279 -1.87293e-006 -2.31402e-006 9.27726e-007 -1.87309e-006 -2.31397e-006 9.27929e-007 -1.87309e-006 -2.31397e-006 9.27929e-007 -1.87309e-006 -2.31397e-006 9.27929e-007 -14.7733 -4.96645 -43.2829 55.232 9.60663 46.2804 -2.07391 17.5683 128.957 -41.5511 -15.3698 -30.5399 -3.31043e-031 -3.97569e-015 -4.77083e-015 7.95139e-016 -5.96354e-016 -3.18055e-015 2.48282e-031 2.98177e-015 -4.77083e-015 -3.31043e-031 -3.97569e-015 -4.77083e-015 0.0149964 -8.51602e-005 2.74798e-006 -7.95139e-016 -2.98177e-015 -1.59028e-015 -3.31043e-031 -3.97569e-015 -4.77083e-015 0.0189694 -0.00118908 -5.45688e-005 -1.59028e-015 -1.39149e-015 1.59028e-015 -3.31043e-031 -3.97569e-015 -4.77083e-015 0.0122486 -0.00324304 -0.000679668 2.38542e-015 -5.96354e-015 -0 -3.31043e-031 -3.97569e-015 -4.77083e-015 7.95139e-016 -5.96354e-016 -3.18055e-015 2.48282e-031 2.98177e-015 -4.77083e-015 -1.89779 -0.972554 -5.11116 -167.562 68.4484 163.597 -6.59506 18.0524 0.334588 -8.04861e-007 -2.97498e-008 -2.80264e-007 4.65256 -1.98763 2.83364 20.8845 80.8371 -19.8745 11.4564 42.0988 0.532861 -3.02098e-006 -2.92646e-006 3.84195e-007 
-0.253651 -6.95945 54.3189 -90.3963 -89.7304 89.3514 0.165524 -5.17769 0.0489063 0.337587 -10.3552 0.113604 0.337587 -10.3551 0.113604 -2.71126e-006 -2.22922 2.31935e-007 2.88531e-007 18.5778 -2.46714e-007 7.71513 -39.6099 15.955 -55.2161 1.47182 -39.4572 50.8164 -16.6088 -108.16 10.5852 -62.3844 42.4767 -4.18537e-006 -4.46619e-007 2.32197e-006 4.77083e-015 -1.59028e-015 3.18055e-015 4.46619e-007 -4.18537e-006 -4.66257e-007 -4.18537e-006 -4.46619e-007 2.32197e-006 -0.0145927 -9.1762e-005 -1.23132e-006 4.46914e-007 -4.18531e-006 -4.66791e-007 -4.18537e-006 -4.46619e-007 2.32197e-006 -0.0187503 -0.00117907 5.52532e-005 4.46992e-007 -4.18527e-006 -4.66948e-007 -4.18537e-006 -4.46619e-007 2.32197e-006 -0.0122708 -0.00324749 0.000677629 9.3575e-007 -2.32803e-006 -1.82131e-006 -4.18537e-006 -4.46619e-007 2.32197e-006 4.77083e-015 -1.59028e-015 3.18055e-015 4.46619e-007 -4.18537e-006 -4.66257e-007 -15.1286 -5.94204 -43.5174 55.232 9.60662 46.2804 -2.07392 17.5684 128.957 -41.8355 -15.4862 -30.8367 -1.59028e-015 -1.19271e-015 3.18055e-015 1.4025e-006 -2.94817e-007 5.92947e-008 7.95139e-016 -1.98785e-016 -1.59028e-015 -1.59028e-015 -1.19271e-015 3.18055e-015 0.0149867 -8.95283e-005 9.05066e-008 -7.95139e-016 2.18663e-014 1.59028e-015 -1.59028e-015 -1.19271e-015 3.18055e-015 0.0189865 -0.00118514 -5.84657e-005 4.09501e-007 2.42343e-006 -1.6846e-006 -1.59028e-015 -1.19271e-015 3.18055e-015 0.0123015 -0.00325771 -0.000680306 3.18055e-015 3.18055e-015 -7.95139e-015 -1.59028e-015 -1.19271e-015 3.18055e-015 1.4025e-006 -2.94817e-007 5.92947e-008 7.95139e-016 -1.98785e-016 -1.59028e-015 -1.89779 -0.972554 -5.11116 -167.562 68.4484 163.597 -6.59506 18.0524 0.334588 -8.04861e-007 -2.97498e-008 -2.80264e-007 4.65256 -1.98763 2.83364 20.8845 80.8371 -19.8745 11.4564 42.0988 0.532861 -3.02098e-006 -2.92646e-006 3.84195e-007 
-0.253651 -6.95945 54.3189 -90.3963 -89.7304 89.3514 0.166036 -4.99963 0.0482414 0.338261 -9.99907 0.111733 0.338261 -9.99906 0.111733 -2.73156e-006 0.62404 5.57087e-008 1.01863e-007 17.3325 7.60557e-008 8.42155 -40.378 16.4205 -55.2161 1.47182 -39.4572 50.8164 -16.6088 -108.16 11.507 -62.5705 43.1659 3.18055e-015 -1.25234e-014 -1.59028e-015 3.18055e-015 -1.21259e-014 -1.59028e-015 3.18055e-015 -1.15295e-014 7.95139e-016 3.18055e-015 -1.25234e-014 -1.59028e-015 -0.0146078 -8.45034e-005 3.28347e-006 -0 -5.56597e-015 -0 3.18055e-015 -1.25234e-014 -1.59028e-015 -0.0187598 -0.00117346 5.67597e-005 -1.11319e-014 7.95139e-016 -3.18055e-015 3.18055e-015 -1.25234e-014 -1.59028e-015 -0.0122721 -0.00324476 0.000676836 -1.27222e-014 2.98177e-015 -0 3.18055e-015 -1.25234e-014 -1.59028e-015 3.18055e-015 -1.21259e-014 -1.59028e-015 3.18055e-015 -1.15295e-014 7.95139e-016 -15.4888 -6.91657 -43.7586 55.232 9.60662 46.2804 -2.07391 17.5683 128.957 -42.1208 -15.6013 -31.1342 2.38542e-015 -1.63003e-014 1.59028e-015 2.38542e-015 -1.59028e-014 3.18055e-015 2.38542e-015 -9.54166e-015 1.59028e-015 2.38542e-015 -1.63003e-014 1.59028e-015 0.0149918 -9.01557e-005 2.39491e-006 1.39766e-006 -2.90462e-007 6.18001e-008 2.38542e-015 -1.63003e-014 1.59028e-015 0.0189961 -0.00119353 -6.4729e-005 3.97569e-015 -4.17448e-015 -1.11319e-014 2.38542e-015 -1.63003e-014 1.59028e-015 0.0122796 -0.00324564 -0.000677315 7.95139e-016 2.18663e-015 4.77083e-015 2.38542e-015 -1.63003e-014 1.59028e-015 2.38542e-015 -1.59028e-014 3.18055e-015 2.38542e-015 -9.54166e-015 1.59028e-015 -1.89779 -0.972554 -5.11116 -167.562 68.4484 163.597 -6.59506 18.0524 0.334588 -8.04861e-007 -2.97498e-008 -2.80264e-007 4.65256 -1.98763 2.83364 20.8845 80.8371 -19.8745 11.4564 42.0988 0.532861 -3.02098e-006 -2.92646e-006 3.84195e-007 
